<?xml version="1.0" encoding="iso-8859-1"?>
<!-- Generator: Adobe Illustrator 19.0.0, SVG Export Plug-In . SVG Version: 6.00 Build 0)  -->
<svg version="1.1" id="Layer_1" xmlns="http://www.w3.org/2000/svg" xmlns:xlink="http://www.w3.org/1999/xlink" x="0px" y="0px"
	 viewBox="0 0 512 512" style="enable-background:new 0 0 512 512;" xml:space="preserve">
<g>
	<g>
		<path d="M420.27,319.853c31.599-35.24,49.064-80.156,49.064-127.853c0-51.281-19.969-99.5-56.24-135.76
			C376.833,19.969,328.615,0,277.333,0C229.637,0,184.72,17.465,149.48,49.064l-23.001-23.001c-4.167-4.167-10.917-4.167-15.083,0
			C65.646,71.813,42.667,131.906,42.667,192c0,60.094,22.979,120.188,68.729,165.938c37.602,37.602,84.922,59.48,133.938,66.176V448
			h-96c-23.531,0-42.667,19.135-42.667,42.667v10.667c0,5.896,4.771,10.667,10.667,10.667h277.333
			c5.896,0,10.667-4.771,10.667-10.667v-10.667c0-23.531-19.135-42.667-42.667-42.667h-96v-21.956
			c3.557,0.16,7.107,0.508,10.667,0.508c60.094,0,120.188-22.865,165.938-68.615c2-2,3.125-4.708,3.125-7.542
			c0-2.833-1.125-5.542-3.125-7.542L420.27,319.853z M220.921,31.046c17.913-6.264,36.876-9.712,56.413-9.712
			c12.021,0,23.827,1.311,35.323,3.72c4.245,18.292,7.074,36.497,6.906,44.842c-5.521,0.552-13.469,2.031-19.167,5.948
			c-0.604-5.125-3.052-9.844-7.292-14.083c-20.656-20.615-55.438,9.698-69.438,23.688c-9.854,9.854-13.365,20.417-16.188,28.906
			c-0.771,2.313-1.479,4.438-2.25,6.406c-0.969-5.021-1.094-12.552,1.333-20.469c2.323-7.583,4.698-18.573-1.427-26.563
			c-1.781-2.323-3.906-3.927-6.115-5.042C203.001,59.482,211.449,44.888,220.921,31.046z M370.271,178.854
			c4.49,4.49,1.333,16.646-2.542,25.667c-6.333-1.25-13.448-3.542-16.521-6.615c-2.177-2.177-2.25-2.656-2.552-4.656
			c-0.688-4.563-1.875-9.521-7.896-15.552c-5.573-5.563-11.115-7.854-15.563-9.688c-3.844-1.594-6.625-2.74-9.771-5.885
			c-3.521-3.521-7.719-5-12.292-5c-15.448,0-35.135,16.906-47.167,28.917c-2.25,2.271-5.094,4.031-7.406,4.604
			c-1.74,0.479-2.094,0.063-2.354-0.208c-1.646-1.635-3.583-3.292-5.646-5.031c-7.292-6.156-11.729-10.448-11.906-18.104
			c-0.333-13.917,11.01-26.792,15.906-31.688c4.583-4.583,6.458-5.219,9.563-6.271c5.729-1.938,11.177-4.25,19.938-13.01l5.646-5.51
			c5.698-5.5,11.229-10.833,15.156-16.469c1.698,3.354,5.115,6.917,11.552,10.083c13.052,6.417,29.896,7.979,40.219,7.563
			c1.625,11.885,5.281,28.99,13.271,36.99c0.115,0.448,0.042,1.969-0.01,3.073C359.625,157.927,359.167,167.74,370.271,178.854z
			 M227.073,123.021c0.219-0.646,0.438-1.292,0.646-1.938c2.552-7.656,4.75-14.271,11.031-20.552
			c16.458-16.458,29.885-23.448,36.646-23.448c1.729,0,3.021,0.458,3.813,1.323c0.177,3.083-9.25,12.177-14.313,17.063l-5.917,5.781
			c-5.948,5.948-8.479,6.802-11.688,7.885c-5.313,1.802-10.313,3.896-17.813,11.396
			C228.719,121.292,227.917,122.125,227.073,123.021z M156.656,71.323c8.798-8.798,18.445-16.408,28.664-22.982
			c-5.684,10.728-10.251,21.579-10.081,28.857c0.073,2.844,1.271,5.552,3.344,7.51c2.073,1.948,4.823,3.208,7.688,2.896
			c0.521-0.031,0.948-0.021,1.365-0.01c-0.146,1.302-0.521,3.365-1.469,6.448c-4.083,13.344-4.635,33.021,3.813,44.729
			c4.188,5.802,10.25,9.094,17.063,9.25c1.417,0.021,2.865-0.229,4.177-0.75c-2.49,6.24-4.063,13.146-3.896,20.521
			c0.406,17.823,11.885,27.51,19.479,33.917c1.573,1.333,3.073,2.573,4.323,3.823c5.844,5.833,14.135,7.99,22.625,5.813
			c6.115-1.531,12.271-5.167,17.313-10.208c12.063-12.052,25.448-21.302,30.708-22.563c5.635,5.167,10.948,7.365,15.292,9.156
			c3.635,1.5,6.052,2.49,8.604,5.063c1.583,1.573,1.604,1.688,1.896,3.656c0.719,4.76,1.979,9.958,8.563,16.542
			c11.563,11.563,34.385,13.604,36.948,13.792c0.271,0.021,0.542,0.031,0.802,0.031c3.792,0,7.323-2.021,9.24-5.344
			c2.25-3.885,21.365-38.573,2.24-57.698c-4.438-4.448-4.344-6.406-4.146-10.698c0.219-4.635,0.583-12.375-6.552-19.51
			c-3.031-3.031-6.76-18.958-7.833-33.427c-0.208-2.865-1.583-5.531-3.781-7.385s-5.146-2.698-7.938-2.448
			c-4.24,0.427-13.927,0.771-23.646-0.635c1.938-0.885,3.667-2.229,5.063-3.969c2.25-2.822,8.517-10.91-0.406-53.806
			c22.962,8.417,44.085,21.62,61.896,39.431C430.25,103.563,448,146.417,448,192s-17.75,88.438-49.99,120.677
			c-23.085,23.085-51.66,38.585-82.734,45.615c-8.568-10.116-28.359-33.281-38.724-43.646c-4.208-4.208-5.083-8.781-6.177-15.896
			c-1.073-7.021-2.417-15.76-9.563-22.906c-12.323-12.323-25.406-1.729-30.99,2.781c-3.75,3.031-7.625,6.156-10.823,6.24
			c-2.073,0.052-4.479,0.01-7.198-0.042c-15.582-0.156-43.077-0.668-65.964,15.928c-25.348-30.538-39.172-68.573-39.172-108.751
			C106.667,146.417,124.417,103.563,156.656,71.323z M290.415,362.03c-4.34,0.328-8.685,0.637-13.082,0.637
			c-43.721,0-84.827-16.48-116.569-46.263c16.621-10.754,36.667-10.521,50.642-10.247c3.094,0.052,5.813,0.094,8.188,0.042
			c10.396-0.292,18.052-6.469,23.635-10.979c1.063-0.854,2.458-1.99,3.625-2.823c1.229,2.094,1.75,5.104,2.438,9.583
			c1.188,7.75,2.813,18.375,12.177,27.75C268.592,336.853,280.966,351.021,290.415,362.03z M362.667,469.333
			c11.76,0,21.333,9.573,21.333,21.333H128c0-11.76,9.573-21.333,21.333-21.333H362.667z M126.479,342.854
			c-80.656-80.656-83.104-210.344-7.354-293.979l15.272,15.272C102.798,99.387,85.333,144.303,85.333,192
			c0,51.281,19.969,99.5,56.24,135.76c36.26,36.271,84.479,56.24,135.76,56.24c47.697,0,92.613-17.465,127.853-49.064l15.272,15.272
			C336.802,425.948,207.115,423.49,126.479,342.854z"/>
	</g>
</g>
<g>
</g>
<g>
</g>
<g>
</g>
<g>
</g>
<g>
</g>
<g>
</g>
<g>
</g>
<g>
</g>
<g>
</g>
<g>
</g>
<g>
</g>
<g>
</g>
<g>
</g>
<g>
</g>
<g>
</g>
</svg>
