<svg xmlns="http://www.w3.org/2000/svg"><symbol id="24-hours" viewBox="0 0 512 512"><path d="M502.941 188.276c-1.461-5.342-6.985-8.488-12.315-7.027-5.342 1.46-8.489 6.974-7.028 12.315 5.54 20.265 8.349 41.271 8.349 62.435 0 130.102-105.845 235.947-235.947 235.947S20.053 386.102 20.053 256 125.898 20.053 256 20.053c71.284 0 138.517 32.33 183.149 87.245h-15.392c-5.539 0-10.027 4.489-10.027 10.027 0 5.537 4.488 10.027 10.027 10.027h38.792c5.539 0 10.027-4.489 10.027-10.027V78.534c0-5.537-4.488-10.027-10.027-10.027-5.539 0-10.027 4.489-10.027 10.027v13.441C404.108 34.021 332.182 0 256 0 114.841 0 0 114.841 0 256s114.841 256 256 256 256-114.841 256-256c0-22.95-3.048-45.736-9.059-67.724z"/><path d="M234.738 350.919h-80.74l50.725-50.725c25.821-25.821 40.041-60.15 40.041-96.666 0-34.462-28.037-62.499-62.499-62.499s-62.499 28.037-62.499 62.499c0 5.537 4.488 10.027 10.027 10.027 5.539 0 10.027-4.489 10.027-10.027 0-23.405 19.041-42.446 42.446-42.446 23.405 0 42.446 19.041 42.446 42.446 0 31.16-12.134 60.454-34.168 82.487l-67.842 67.842a10.022 10.022 0 0 0-2.172 10.926 10.025 10.025 0 0 0 9.263 6.19h104.945c5.539 0 10.027-4.489 10.027-10.027s-4.488-10.027-10.027-10.027zM395.577 282.069h-27.819V151.055a10.027 10.027 0 0 0-18.636-5.141l-84.224 141.041a10.023 10.023 0 0 0-.111 10.089 10.024 10.024 0 0 0 8.719 5.077h74.197v58.823c0 5.537 4.488 10.027 10.027 10.027 5.539 0 10.027-4.489 10.027-10.027v-58.823h27.819c5.539 0 10.028-4.489 10.028-10.027s-4.488-10.025-10.027-10.025zm-47.872 0h-56.531l56.531-94.667v94.667zM256 35.845c-5.539 0-10.027 4.489-10.027 10.027v13.071c0 5.537 4.489 10.027 10.027 10.027 5.539 0 10.027-4.489 10.027-10.027V45.871c0-5.537-4.488-10.026-10.027-10.026zM256 443.031c-5.539 0-10.027 4.489-10.027 10.027v13.071c0 5.537 4.488 10.027 10.027 10.027s10.027-4.489 10.027-10.027v-13.071c0-5.537-4.488-10.027-10.027-10.027zM468.216 245.973h-15.158c-5.539 0-10.027 4.489-10.027 10.027s4.488 10.027 10.027 10.027h15.158c5.539 0 10.027-4.489 10.027-10.027s-4.489-10.027-10.027-10.027zM58.942 245.973H43.784c-5.539 0-10.027 4.489-10.027 10.027s4.488 10.027 10.027 10.027h15.158c5.537 0 10.027-4.489 10.027-10.027s-4.488-10.027-10.027-10.027z"/><circle cx="440.022" cy="149.758" r="10.027"/><circle cx="362.242" cy="71.977" r="10.027"/><circle cx="149.744" cy="71.977" r="10.027"/><circle cx="71.969" cy="149.758" r="10.027"/><circle cx="71.969" cy="362.256" r="10.027"/><circle cx="149.744" cy="440.035" r="10.027"/><circle cx="362.242" cy="440.022" r="10.027"/><circle cx="440.022" cy="362.242" r="10.027"/></symbol><symbol id="airplane" viewBox="0 0 612.01 612.01"><path d="M596.905 15.396c-23.856-23.914-65.753-18.308-89.724 5.72L385.202 142.828l-226.3-84.578c-21.656-5.605-43.485-12.837-70.383 14.1-13.698 13.736-42.222 42.318 0 84.616L243.69 284.015 142.736 384.758l-94.201-23.531c-13.984-3.616-23.378-.784-30.552 7.116-3.616 4.516-29.844 23.972-11.574 42.28l109.544 85.209 85.19 109.544c13.239 13.258 25.54 4.993 42.356-10.981 10.656-10.675 8.36-16.165 5.146-31.738l-21.293-93.531 100.266-100.609 126.838 155.171c42.223 42.299 70.747 13.717 84.444 0 26.898-26.955 19.667-48.822 14.08-70.517l-83.85-226.645 121.501-121.922c23.99-24.047 30.131-65.312 6.274-89.208zm-25.884 63.956l-142.564 143.08 86.204 237.128c4.247 13.583 1.607 30.399-3.883 35.89-15.592 15.63-26.727 8.207-32.618 1.646L340.321 310.875l-152.57 153.124 27.453 101.968c-10.828-10.866-74.133-95.636-75.663-97.166-1.014-1.014-84.253-63.074-93.245-72.085l97.798 26.381 155.477-152.665-184.9-136.806c-5.299-4.744-12.263-18.748 2.009-33.058 5.472-5.491 22.116-7.155 35.679-2.908l236.095 85.554L532.951 41.319c10.082-10.102 29.863-9.068 38.701-.21 8.859 8.857 9.452 28.141-.631 38.243z" fill="#c5c5c5"/></symbol><symbol id="bank" viewBox="0 0 408 408"><path d="M383.2 91.15L206 26.35c-1.6-.4-2.8-.4-4.4 0L25.2 91.15c-2.8 1.2-4.8 4-4 7.2.4 2.8 2.8 5.2 6 5.2h353.6c3.2 0 5.6-2.4 6.4-5.2.4-3.2-1.2-6-4-7.2zm-319.6-.8L204 39.15l140.4 51.2H63.6zM401.6 342.75h-18v-20c0-3.6-2.8-6.4-6.4-6.4h-10.4v-19.6c0-3.6-2.8-6.4-6.4-6.4h-4v-155.2h16c3.6 0 6.4-2.8 6.4-6.4 0-3.6-2.8-6.4-6.4-6.4H35.6c-3.6 0-6.4 2.8-6.4 6.4 0 3.6 2.8 6.4 6.4 6.4h16v155.2h-4c-3.6 0-6.4 2.8-6.4 6.4v19.6H30.8c-3.6 0-6.4 2.8-6.4 6.4v20h-18c-3.6 0-6.4 2.8-6.4 6.4v26.4c0 3.6 2.8 6.4 6.4 6.4h395.2c3.6 0 6.4-2.8 6.4-6.4v-26.4c0-3.6-2.8-6.4-6.4-6.4zm-77.2-207.6h18.8v155.2h-18.8v-155.2zm-10.4 168h40v13.2h-40v-13.2zm-87.6-168h85.2v155.2h-4c-3.6 0-6.4 2.8-6.4 6.4v19.6h-64.4v-19.6c0-3.6-2.8-6.4-6.4-6.4h-4v-155.2zm-31.6 0h18.8v155.2h-18.8v-155.2zm-10.8 168h40v13.2h-40v-13.2zm-87.6-168h85.2v155.2h-4c-3.6 0-6.4 2.8-6.4 6.4v19.6h-64.4v-19.6c0-3.6-2.8-6.4-6.4-6.4h-4v-155.2zm-31.6 0h18.8v155.2H64.8v-155.2zm-10.8 168h40v13.2H54v-13.2zm-16.8 26H370.8v13.6H37.2v-13.6zm358 40H12.8v-13.6h382.4v13.6z"/></symbol><symbol id="big-sun" viewBox="0 0 612.658 612.658"><path d="M305.927 132.637c-95.566 0-173.729 78.163-173.729 173.729s78.163 173.729 173.729 173.729 173.729-78.237 173.729-173.729-77.359-173.729-173.729-173.729zm0 318.21c-79.772 0-144.482-64.783-144.482-144.482s64.783-144.482 144.482-144.482 144.482 64.71 144.482 144.482-64.71 144.482-144.482 144.482zM291.742 63.905v-49.72C291.742 6.288 298.03 0 305.927 0s14.185 6.288 14.185 14.185v49.72c0 7.897-6.288 14.185-14.185 14.185-7.897.805-14.185-6.288-14.185-14.185zm-143.751-3.144c-3.948-7.092-1.609-15.794 5.557-19.742 7.092-3.948 15.794-1.609 19.742 5.557l24.495 42.628c3.948 7.092 1.609 15.794-5.557 19.742-2.34 1.609-4.753 1.609-7.092 1.609-4.753 0-10.237-2.34-12.649-7.092l-24.496-42.702zm-38.679 131.833c-2.34 4.753-7.897 7.092-12.649 7.092-2.34 0-4.753-.804-7.092-1.609l-42.628-24.495c-7.092-3.948-9.505-12.649-5.557-19.742s12.649-9.505 19.742-5.557l42.628 24.495c7.091 4.022 9.504 12.723 5.556 19.816zM64.271 320.551h-49.72c-7.897 0-14.185-6.288-14.185-14.185s6.288-14.185 14.185-14.185h49.72c7.897 0 14.185 6.288 14.185 14.185.073 7.896-6.288 14.185-14.185 14.185zm45.041 99.514c3.948 7.092 1.609 15.794-5.557 19.742l-42.628 24.495c-2.34 1.609-4.753 1.609-7.092 1.609-4.753 0-10.237-2.34-12.649-7.092-3.948-7.092-1.609-15.794 5.557-19.742l42.628-24.495c6.287-4.023 15.792-1.61 19.741 5.483zm88.4 103.462l-24.422 42.628c-2.34 4.753-7.897 7.092-12.649 7.092-2.34 0-4.753-.804-7.092-1.609-7.092-3.948-9.505-12.649-5.557-19.742l24.495-42.628c3.948-7.092 12.649-9.505 19.742-5.557 7.091 4.022 9.431 12.65 5.483 19.816zm123.204 25.226v49.72c0 7.897-6.288 14.185-14.185 14.185s-14.185-6.288-14.185-14.185v-49.72c0-7.897 6.288-14.185 14.185-14.185 7.897-.805 14.185 6.288 14.185 14.185zm143.751 3.144c3.948 7.092 1.609 15.794-5.557 19.742-2.34.804-4.753 1.609-7.092 1.609-4.753 0-10.237-2.34-12.65-7.092l-24.495-42.628c-3.948-7.092-1.609-15.794 5.557-19.742 7.092-3.948 15.794-1.609 19.742 5.557l24.495 42.554zm106.606-92.349c-2.34 4.753-7.897 7.092-12.65 7.092-2.34 0-4.753-.804-7.092-1.609l-42.628-24.495c-7.092-3.948-9.505-12.649-5.557-19.742 3.948-7.092 12.65-9.505 19.742-5.557l42.628 24.495c7.093 4.023 9.505 12.724 5.557 19.816zm41.019-153.182c0 7.897-6.288 14.185-14.185 14.185h-49.72c-7.897 0-14.185-6.288-14.185-14.185s6.288-14.185 14.185-14.185h49.72c7.897-.878 14.185 6.288 14.185 14.185zM503.346 192.594c-3.948-7.092-1.609-15.794 5.557-19.742l42.628-24.495c7.092-3.948 15.794-1.609 19.742 5.557 3.948 7.092 1.609 15.794-5.557 19.742l-42.628 24.495c-2.34 1.609-4.753 1.609-7.092 1.609-4.753-.001-9.506-2.414-12.65-7.166zm-88.473-103.39l24.495-42.628c3.948-7.092 12.65-9.505 19.742-5.557s9.505 12.649 5.557 19.742l-24.495 42.628c-2.34 4.753-7.897 7.092-12.65 7.092-2.34 0-4.753-.804-7.092-1.609-7.092-3.874-9.505-12.575-5.557-19.668z"/></symbol><symbol id="contact" viewBox="0 0 44 44"><path d="M43 6H1a1 1 0 0 0-1 1v30a1 1 0 0 0 1 1h42a1 1 0 0 0 1-1V7a1 1 0 0 0-1-1zm-1 27.581L29.612 21.194l-1.414 1.414L41.59 36H2.41l13.392-13.392-1.414-1.414L2 33.581V8h40v25.581z" fill="#c5c5c5"/><path d="M39.979 8L22 25.979 4.021 8H2v.807L21.293 28.1a.999.999 0 0 0 1.414 0L42 8.807V8h-2.021z" fill="#c5c5c5"/></symbol><symbol id="credit-card" viewBox="0 0 512 512"><path d="M469.256 175.503h-52.1v-73.542c0-23.569-19.175-42.744-42.744-42.744H42.744C19.175 59.218 0 78.393 0 101.962v191.786c0 23.569 19.175 42.744 42.744 42.744h52.102v73.546c0 23.569 19.175 42.744 42.744 42.744h331.666c23.569 0 42.744-19.175 42.744-42.744V218.247c0-23.569-19.175-42.744-42.744-42.744zM24.425 101.962c0-10.101 8.218-18.319 18.319-18.319h331.668c10.101 0 18.319 8.218 18.319 18.319v17.051H24.425v-17.051zm70.421 116.285v93.819H42.744c-10.101 0-18.319-8.218-18.319-18.319v-93.743h74.52a42.471 42.471 0 0 0-4.099 18.243zm-70.421-42.668v-32.14h368.306v32.064H137.59c-.826 0-1.644.029-2.458.076H24.425zm444.831 252.778H137.59c-10.101 0-18.319-8.218-18.319-18.319V218.247c0-9.597 7.422-17.479 16.824-18.243H404.94c.451 0 .894-.028 1.331-.076h62.984c10.101 0 18.319 8.218 18.319 18.319v191.791h.001c0 10.101-8.218 18.319-18.319 18.319z" fill="#c5c5c5"/><path d="M340.211 255.272c-13.892 0-26.666 4.847-36.745 12.924-10.333-8.324-23.209-12.931-36.829-12.931-32.465 0-58.877 26.412-58.877 58.877s26.412 58.877 58.877 58.877c13.621 0 26.496-4.607 36.829-12.929 10.079 8.077 22.853 12.925 36.745 12.925 32.462 0 58.871-26.41 58.871-58.872s-26.409-58.871-58.871-58.871zm-52.258 85.929c-6.009 4.758-13.451 7.392-21.317 7.392-18.997.001-34.452-15.454-34.452-34.45 0-18.997 15.455-34.452 34.452-34.452 7.866 0 15.307 2.635 21.317 7.392a58.48 58.48 0 0 0-6.613 27.058 58.501 58.501 0 0 0 6.613 27.06zm52.258 7.388c-18.993 0-34.445-15.453-34.445-34.447 0-18.993 15.453-34.445 34.445-34.445 18.993 0 34.445 15.453 34.445 34.445 0 18.995-15.452 34.447-34.445 34.447z" fill="#c5c5c5"/></symbol><symbol id="globe" viewBox="0 0 512 512"><path d="M420.27 319.853c31.599-35.24 49.064-80.156 49.064-127.853 0-51.281-19.969-99.5-56.24-135.76C376.833 19.969 328.615 0 277.333 0 229.637 0 184.72 17.465 149.48 49.064l-23.001-23.001c-4.167-4.167-10.917-4.167-15.083 0C65.646 71.813 42.667 131.906 42.667 192c0 60.094 22.979 120.188 68.729 165.938 37.602 37.602 84.922 59.48 133.938 66.176V448h-96c-23.531 0-42.667 19.135-42.667 42.667v10.667a10.66 10.66 0 0 0 10.667 10.667h277.333a10.66 10.66 0 0 0 10.667-10.667v-10.667c0-23.531-19.135-42.667-42.667-42.667h-96v-21.956c3.557.16 7.107.508 10.667.508 60.094 0 120.188-22.865 165.938-68.615a10.66 10.66 0 0 0 0-15.084l-23.002-23zM220.921 31.046c17.913-6.264 36.876-9.712 56.413-9.712 12.021 0 23.827 1.311 35.323 3.72 4.245 18.292 7.074 36.497 6.906 44.842-5.521.552-13.469 2.031-19.167 5.948-.604-5.125-3.052-9.844-7.292-14.083-20.656-20.615-55.438 9.698-69.438 23.688-9.854 9.854-13.365 20.417-16.188 28.906-.771 2.313-1.479 4.438-2.25 6.406-.969-5.021-1.094-12.552 1.333-20.469 2.323-7.583 4.698-18.573-1.427-26.563-1.781-2.323-3.906-3.927-6.115-5.042 3.982-9.205 12.43-23.799 21.902-37.641zm149.35 147.808c4.49 4.49 1.333 16.646-2.542 25.667-6.333-1.25-13.448-3.542-16.521-6.615-2.177-2.177-2.25-2.656-2.552-4.656-.688-4.563-1.875-9.521-7.896-15.552-5.573-5.563-11.115-7.854-15.563-9.688-3.844-1.594-6.625-2.74-9.771-5.885-3.521-3.521-7.719-5-12.292-5-15.448 0-35.135 16.906-47.167 28.917-2.25 2.271-5.094 4.031-7.406 4.604-1.74.479-2.094.063-2.354-.208-1.646-1.635-3.583-3.292-5.646-5.031-7.292-6.156-11.729-10.448-11.906-18.104-.333-13.917 11.01-26.792 15.906-31.688 4.583-4.583 6.458-5.219 9.563-6.271 5.729-1.938 11.177-4.25 19.938-13.01l5.646-5.51c5.698-5.5 11.229-10.833 15.156-16.469 1.698 3.354 5.115 6.917 11.552 10.083 13.052 6.417 29.896 7.979 40.219 7.563 1.625 11.885 5.281 28.99 13.271 36.99.115.448.042 1.969-.01 3.073-.271 5.863-.729 15.676 10.375 26.79zm-143.198-55.833c.219-.646.438-1.292.646-1.938 2.552-7.656 4.75-14.271 11.031-20.552 16.458-16.458 29.885-23.448 36.646-23.448 1.729 0 3.021.458 3.813 1.323.177 3.083-9.25 12.177-14.313 17.063l-5.917 5.781c-5.948 5.948-8.479 6.802-11.688 7.885-5.313 1.802-10.313 3.896-17.813 11.396-.759.761-1.561 1.594-2.405 2.49zm-70.417-51.698c8.798-8.798 18.445-16.408 28.664-22.982-5.684 10.728-10.251 21.579-10.081 28.857a10.709 10.709 0 0 0 3.344 7.51c2.073 1.948 4.823 3.208 7.688 2.896a15.02 15.02 0 0 1 1.365-.01c-.146 1.302-.521 3.365-1.469 6.448-4.083 13.344-4.635 33.021 3.813 44.729 4.188 5.802 10.25 9.094 17.063 9.25a10.978 10.978 0 0 0 4.177-.75c-2.49 6.24-4.063 13.146-3.896 20.521.406 17.823 11.885 27.51 19.479 33.917 1.573 1.333 3.073 2.573 4.323 3.823 5.844 5.833 14.135 7.99 22.625 5.813 6.115-1.531 12.271-5.167 17.313-10.208 12.063-12.052 25.448-21.302 30.708-22.563 5.635 5.167 10.948 7.365 15.292 9.156 3.635 1.5 6.052 2.49 8.604 5.063 1.583 1.573 1.604 1.688 1.896 3.656.719 4.76 1.979 9.958 8.563 16.542 11.563 11.563 34.385 13.604 36.948 13.792a10.67 10.67 0 0 0 10.042-5.313c2.25-3.885 21.365-38.573 2.24-57.698-4.438-4.448-4.344-6.406-4.146-10.698.219-4.635.583-12.375-6.552-19.51-3.031-3.031-6.76-18.958-7.833-33.427-.208-2.865-1.583-5.531-3.781-7.385s-5.146-2.698-7.938-2.448c-4.24.427-13.927.771-23.646-.635a13.883 13.883 0 0 0 5.063-3.969c2.25-2.822 8.517-10.91-.406-53.806 22.962 8.417 44.085 21.62 61.896 39.431C430.25 103.563 448 146.417 448 192s-17.75 88.438-49.99 120.677c-23.085 23.085-51.66 38.585-82.734 45.615-8.568-10.116-28.359-33.281-38.724-43.646-4.208-4.208-5.083-8.781-6.177-15.896-1.073-7.021-2.417-15.76-9.563-22.906-12.323-12.323-25.406-1.729-30.99 2.781-3.75 3.031-7.625 6.156-10.823 6.24-2.073.052-4.479.01-7.198-.042-15.582-.156-43.077-.668-65.964 15.928-25.348-30.538-39.172-68.573-39.172-108.751.002-45.583 17.752-88.437 49.991-120.677zM290.415 362.03c-4.34.328-8.685.637-13.082.637-43.721 0-84.827-16.48-116.569-46.263 16.621-10.754 36.667-10.521 50.642-10.247 3.094.052 5.813.094 8.188.042 10.396-.292 18.052-6.469 23.635-10.979 1.063-.854 2.458-1.99 3.625-2.823 1.229 2.094 1.75 5.104 2.438 9.583 1.188 7.75 2.813 18.375 12.177 27.75 7.123 7.123 19.497 21.291 28.946 32.3zm72.252 107.303c11.76 0 21.333 9.573 21.333 21.333H128c0-11.76 9.573-21.333 21.333-21.333h213.334zM126.479 342.854c-80.656-80.656-83.104-210.344-7.354-293.979l15.272 15.272C102.798 99.387 85.333 144.303 85.333 192c0 51.281 19.969 99.5 56.24 135.76 36.26 36.271 84.479 56.24 135.76 56.24 47.697 0 92.613-17.465 127.853-49.064l15.272 15.272c-83.656 75.74-213.343 73.282-293.979-7.354z"/></symbol><symbol id="like" viewBox="0 0 512 512"><path d="M474.644 74.27C449.391 45.616 414.358 29.836 376 29.836c-53.948 0-88.103 32.22-107.255 59.25-4.969 7.014-9.196 14.047-12.745 20.665-3.549-6.618-7.775-13.651-12.745-20.665-19.152-27.03-53.307-59.25-107.255-59.25-38.358 0-73.391 15.781-98.645 44.435C13.267 101.605 0 138.213 0 177.351c0 42.603 16.633 82.228 52.345 124.7 31.917 37.96 77.834 77.088 131.005 122.397 19.813 16.884 40.302 34.344 62.115 53.429l.655.574c2.828 2.476 6.354 3.713 9.88 3.713s7.052-1.238 9.88-3.713l.655-.574c21.813-19.085 42.302-36.544 62.118-53.431 53.168-45.306 99.085-84.434 131.002-122.395C495.367 259.578 512 219.954 512 177.351c0-39.138-13.267-75.746-37.356-103.081zM309.193 401.614c-17.08 14.554-34.658 29.533-53.193 45.646-18.534-16.111-36.113-31.091-53.196-45.648C98.745 312.939 30 254.358 30 177.351c0-31.83 10.605-61.394 29.862-83.245C79.34 72.007 106.379 59.836 136 59.836c41.129 0 67.716 25.338 82.776 46.594 13.509 19.064 20.558 38.282 22.962 45.659a15 15 0 0 0 28.524 0c2.404-7.377 9.453-26.595 22.962-45.66 15.06-21.255 41.647-46.593 82.776-46.593 29.621 0 56.66 12.171 76.137 34.27C471.395 115.957 482 145.521 482 177.351c0 77.007-68.745 135.588-172.807 224.263z" fill="#c5c5c5"/></symbol><symbol id="pencil" viewBox="0 0 32 32"><path d="M30.276 1.722C29.168.611 27.69 0 26.121 0s-3.045.61-4.154 1.72L4.294 19.291a.991.991 0 0 0-.235.367l-4 11A1.003 1.003 0 0 0 1 32a.987.987 0 0 0 .293-.044l9.949-3.052a.999.999 0 0 0 .414-.248l18.621-18.621A5.833 5.833 0 0 0 32 5.878a5.835 5.835 0 0 0-1.724-4.156zM10.092 27.165l-3.724 1.144a4.272 4.272 0 0 0-1.016-1.662 5.404 5.404 0 0 0-1.356-.961L5.7 21H8v2a1 1 0 0 0 1 1h1.765l-.673 3.165zm14.72-14.494L12.628 24.855l.35-1.647A1 1 0 0 0 12 22h-2v-2a1 1 0 0 0-1-1H7.422L19.315 7.175l.012.011c.732-.733 1.707-1.136 2.742-1.136s2.011.403 2.742 1.136 1.138 1.707 1.138 2.743a3.848 3.848 0 0 1-1.137 2.742zm4.05-4.05l-.932.933a5.837 5.837 0 0 0-1.703-3.782 5.826 5.826 0 0 0-3.787-1.703l.938-.931.002-.002C24.11 2.403 25.085 2 26.121 2s2.01.403 2.741 1.136A3.85 3.85 0 0 1 30 5.878a3.84 3.84 0 0 1-1.138 2.743zm-6.569-.328l-10 10a.999.999 0 1 0 1.414 1.414l10-10a.999.999 0 1 0-1.414-1.414z" fill="#c5c5c5"/></symbol><symbol id="photo-camera" viewBox="0 0 490 490"><g fill="#c5c5c5"><path d="M0 167.85v216.2c0 33 26.8 59.8 59.8 59.8h370.4c33 0 59.8-26.8 59.8-59.8v-216.2c0-31.4-25.5-56.9-56.9-56.9h-79.6l-1.9-8.3c-7.7-33.3-37-56.5-71.2-56.5h-70.9c-34.1 0-63.4 23.2-71.2 56.5l-1.9 8.3H56.9c-31.4 0-56.9 25.6-56.9 56.9zm146.2-32.4c5.7 0 10.6-3.9 11.9-9.5l4.1-17.8c5.2-22.1 24.6-37.5 47.3-37.5h70.9c22.7 0 42.1 15.4 47.3 37.5l4.1 17.8c1.3 5.5 6.2 9.5 11.9 9.5H433c17.9 0 32.4 14.5 32.4 32.4v216.2c0 19.5-15.8 35.3-35.3 35.3H59.8c-19.5 0-35.3-15.8-35.3-35.3v-216.2c0-17.9 14.5-32.4 32.4-32.4h89.3z"/><circle cx="82.9" cy="187.75" r="16.4"/><path d="M245 380.95c56.7 0 102.9-46.2 102.9-102.9s-46.2-102.9-102.9-102.9-102.9 46.1-102.9 102.9 46.2 102.9 102.9 102.9zm0-181.3c43.2 0 78.4 35.2 78.4 78.4s-35.2 78.4-78.4 78.4-78.4-35.2-78.4-78.4 35.2-78.4 78.4-78.4z"/></g></symbol><symbol id="right-arrow" viewBox="0 0 59.414 59.414"><path fill="#48a0dc" d="M15.561 59.414L14.146 58l28.293-28.293L14.146 1.414 15.561 0l29.707 29.707z"/></symbol><symbol id="suitcase" viewBox="0 0 503.607 503.607"><path d="M470.033 88.131H360.918V37.77c0-14.269-10.911-25.18-25.18-25.18H167.869c-14.269 0-25.18 10.911-25.18 25.18v50.361H33.574C15.108 88.131 0 103.239 0 121.705v302.164c0 18.466 15.108 33.574 33.574 33.574h.812c3.797 19.358 20.536 33.574 41.155 33.574s37.359-14.215 41.155-33.574H386.91c3.797 19.358 20.536 33.574 41.155 33.574s37.359-14.215 41.155-33.574h.812c18.466 0 33.574-15.108 33.574-33.574V121.705c.001-18.466-15.108-33.574-33.573-33.574zM159.475 37.77c0-5.036 3.357-8.393 8.393-8.393h167.869c5.036 0 8.393 3.357 8.393 8.393v50.361H159.473V37.77zm117.509 193.05H218.23v-50.361H285.377v50.361h-8.393zm-8.394-67.148h-33.574v-58.754h33.574v58.754zM16.787 423.869V121.705c0-9.233 7.554-16.787 16.787-16.787H218.23v58.754h-8.393c-5.036 0-8.393 3.357-8.393 8.393v67.148c0 5.036 3.357 8.393 8.393 8.393h8.393v193.049H33.574c-9.233.001-16.787-7.553-16.787-16.786zm58.754 50.36c-10.911 0-20.144-6.715-23.502-16.787h47.003c-3.357 10.073-12.59 16.787-23.501 16.787zm159.475-33.573V247.607h33.574v193.049h-33.574zm193.05 33.573c-10.911 0-20.144-6.715-23.502-16.787h47.003c-3.357 10.073-12.59 16.787-23.501 16.787zm58.754-50.36c0 9.233-7.554 16.787-16.787 16.787H285.377V247.607h8.393c5.036 0 8.393-3.357 8.393-8.393v-67.148c0-5.036-3.357-8.393-8.393-8.393h-8.393v-58.754h55.397l28.538 28.538v30.216c0 2.518.839 4.197 2.518 5.875l50.361 50.361c1.679 1.679 3.357 2.518 5.875 2.518s4.197-.839 5.875-2.518l33.574-33.574c3.357-3.357 3.357-8.393 0-11.751l-50.361-50.361c-1.679-1.679-3.357-2.518-5.875-2.518h-30.216l-16.787-16.787h105.757c9.233 0 16.787 7.554 16.787 16.787v302.164zM386.098 138.492h21.823l41.967 41.967-21.823 21.823-41.967-41.967v-21.823z"/></symbol><symbol id="sunbed" viewBox="0 0 466.311 466.311"><path d="M61.221 222.306c11.387-5.561 23.853-5.936 35.389-1.122a7.987 7.987 0 0 0 5.214 1.933h.774c1.97 0 3.801-.719 5.214-1.933 11.536-4.814 24-4.439 35.39 1.122a7.963 7.963 0 0 0 3.504.813 8.002 8.002 0 0 0 7.194-4.492 8 8 0 0 0-3.679-10.699c-15.448-7.543-32.342-8.123-48.01-1.743-15.672-6.38-32.565-5.799-48.01 1.743a8 8 0 0 0 7.02 14.378z"/><path d="M373.786 40.482c-87.616-50.585-199.399-21.35-251.18 65.137-.009-.005-.012-.019-.03-.029l-8 13.856c7.439 4.295 9.127 9.172 11.463 15.925 2.675 7.687 5.998 17.25 18.591 24.52 12.592 7.27 22.536 5.367 30.53 3.84 7.016-1.353 12.093-2.325 19.523 1.965s9.127 9.172 11.463 15.925c2.675 7.687 5.998 17.25 18.591 24.52 12.592 7.27 22.536 5.367 30.522 3.835 4.401-.842 8.027-1.543 11.949-.896l-76.905 133.204h-83.901l-54.19-54.18c-7.17-7.18-16.72-11.46-25.54-11.46-6.82 0-12.9 2.48-17.59 7.17-11.97 11.96-12.12 27.28-.38 39.02l38.19 38.18v81.63c0 4.42 3.58 8 8 8s8-3.58 8-8v-65.63l8.93 8.94c5.76 5.76 13.42 8.93 21.57 8.93h204c-.32.86-.5 1.79-.5 2.76v45c0 4.42 3.58 8 8 8s8-3.58 8-8v-45c0-.97-.18-1.9-.5-2.76h15.36l23.57 23.57c5.76 5.76 13.42 8.93 21.57 8.93 6.81 0 12.979-.53 19.53-7.08 16.12-16.12 10.21-28.79 2.39-36.61l-32.47-32.14c-5.89-5.89-13.75-9.27-21.57-9.27H208.778l72.281-125.195c2.522 3.072 3.733 6.555 5.195 10.782 2.666 7.682 5.99 17.245 18.591 24.52 12.592 7.27 22.536 5.367 30.522 3.835 7.025-1.348 12.093-2.325 19.523 1.965 7.439 4.295 9.127 9.172 11.472 15.93 2.666 7.682 5.998 17.25 18.591 24.52 12.592 7.27 22.536 5.367 30.53 3.84 7.017-1.353 12.093-2.325 19.523 1.965l8-13.856c-.009-.005-.022-.001-.031-.006 49.001-88.093 18.427-199.518-69.189-250.102zm-33.013 317.803c3.599 0 7.339 1.67 10.279 4.61l32.47 32.14c3.48 3.48 5.77 5.77-2.41 13.95-2.11 2.11-3.11 2.4-8.22 2.4-3.88 0-7.521-1.51-10.26-4.25l-25.91-25.91a7.985 7.985 0 0 0-5.65-2.34H93.393c-3.88 0-7.521-1.51-10.26-4.25l-63.12-63.12c-5.53-5.53-5.42-10.59.38-16.39 1.67-1.67 3.729-2.48 6.28-2.48 4.53 0 10.12 2.66 14.23 6.77l56.53 56.53a8.006 8.006 0 0 0 5.66 2.34h237.68zM195.754 148.624c-9.392-3.332-17.142-1.849-23.605-.615-7.016 1.353-12.088 2.317-19.518-1.973-7.431-4.29-9.132-9.164-11.468-15.917-1.532-4.406-6.234-13.922-6.234-13.922 38.51-66.701 115.621-97.202 186.826-79.613-1.204.286-2.423.576-3.657.914-41.607 11.324-82.752 48.709-122.344 111.126zm79.729 46.124c-9.219-3.152-16.85-1.715-23.227-.489-7.025 1.348-12.088 2.317-19.518-1.973-7.431-4.29-9.132-9.164-11.468-15.917-2.105-6.054-4.63-13.261-11.74-19.607 45.763-71.924 85.67-95.985 111.335-103.418 16.852-4.889 29.605-3.438 37.118-1.491l-82.5 142.895zm79.73 46.125c-9.05-2.985-16.563-1.572-22.85-.364-7.025 1.348-12.088 2.317-19.518-1.973-7.439-4.295-9.132-9.164-11.477-15.922-2.132-6.127-4.689-13.458-12.029-19.866l82.5-142.894c5.452 5.538 13.076 15.852 17.277 32.896 6.387 25.938 5.512 72.533-33.903 148.123zm72.432 44.324s-10.583.691-15.174 1.562c-7.016 1.353-12.088 2.317-19.518-1.973-7.439-4.295-9.132-9.164-11.477-15.922-2.154-6.209-4.749-13.654-12.318-20.125 34.249-65.501 46.057-119.813 35.066-161.516a128.585 128.585 0 0 0-1.037-3.624c50.835 52.871 62.968 134.897 24.458 201.598z"/></symbol><symbol id="team" viewBox="0 0 512 512"><path d="M454.889 430.401l-8.412-3.373C488.78 379.97 512 319.526 512 256c0-51.971-15.712-101.977-44.339-144.014a8.01 8.01 0 0 0-1.277-1.835 256.711 256.711 0 0 0-44.602-49.226 8.085 8.085 0 0 0-10.476 12.316 240.732 240.732 0 0 1 36.589 38.902c-17.112 6.688-37.652 12.352-60.582 16.827-6.33-18.86-14.11-36.444-23.256-52.309-12.327-21.385-26.506-38.605-41.959-51.27 24.051 6.876 46.962 17.53 67.987 31.733a8.084 8.084 0 0 0 9.05-13.398C356.796 15.12 307.3 0 256 0 187.619 0 123.333 26.628 74.982 74.982 26.628 123.333 0 187.621 0 256c0 63.608 23.252 124.06 65.624 171.135l-8.306 3.253c-3.059 1.105-29.07 11.48-29.07 44.553v28.967c0 4.466 3.618 8.092 8.084 8.092h118.994c.39 0 .771-.037 1.146-.091.376.054.756.091 1.146.091h32.894a8.082 8.082 0 0 0 8.084-8.084 8.083 8.083 0 0 0-8.084-8.084h-24.81v-28.155c0-29.704 23.332-38.248 24.274-38.58.125-.042.249-.087.373-.136l39.368-15.418c.085.092.165.188.255.276l20.922 20.378a8.093 8.093 0 0 0 5.641 2.293l.127-.001a8.074 8.074 0 0 0 5.693-2.474l20.089-20.844 39.315 15.766c.143.058.237.094.383.142.993.349 24.328 8.896 24.328 38.598v28.155H215.778a8.083 8.083 0 0 0-8.084 8.084 8.083 8.083 0 0 0 8.084 8.084h260.061c4.466 0 8.084-3.676 8.084-8.141v-28.918c.002-32.946-25.813-43.369-29.034-44.54zm-24.461-9.809l-7.969-3.196v-4.6c8.807-5.165 15.576-13.438 18.792-23.306 11.761-.929 21.051-10.776 21.051-22.771 0-7.134-3.288-13.51-8.423-17.708v-14.368c0-27.702-20.788-50.625-47.58-54.027.305-5.481.516-11.003.618-16.532h88.765c-1.943 58.517-24.929 113.79-65.254 156.508zm-29.186-18.199h-7.373c-14.285 0-25.906-11.621-25.906-25.904v-21.39c10.531-1.143 29.184-4.824 43.555-16.826 3.219 5.521 8.2 11.492 15.63 14.979v23.236c-.001 14.284-11.622 25.905-25.906 25.905zm5.05 15.854v4.482l-9.008 9.346-8.464-8.243v-5.586c1.657.199 3.34.314 5.05.314h7.373c1.71.001 3.391-.114 5.049-.313zm-46.387-78.791h-.027a8.33 8.33 0 0 0-.825.042c-.087.009-.172.027-.259.039-.182.024-.364.046-.542.083-.122.024-.239.061-.359.092-.139.035-.279.065-.414.107-.088.027-.171.064-.258.094v-5.269c0-21.126 17.187-38.312 38.313-38.312h3.866c21.125 0 38.309 17.186 38.309 38.312v5.203c-.152-.049-.306-.087-.462-.126-.074-.021-.148-.045-.223-.064-11.27-2.563-14.956-17.604-14.983-17.718a8.081 8.081 0 0 0-6.265-6.134 8.08 8.08 0 0 0-8.17 3.182c-14.639 20.237-47.273 20.469-47.701 20.469zm83.41 32.711v-10.894c1.702 1.215 2.818 3.202 2.818 5.448s-1.116 4.231-2.818 5.446zm14.068-246.419c23.417 36.176 36.826 78.29 38.297 122.167h-88.767c-.656-36.389-5.741-71.486-14.808-103.449 24.855-4.937 47.016-11.246 65.278-18.718zm-66.64 122.169h-82.766c-11.029-12.192-26.533-20.247-43.893-21.587v-69.52c39.671-.395 77.954-3.694 112.062-9.427 8.925 30.912 13.934 65.046 14.597 100.534zm-71.313 84.418c0 4.755-3.212 8.764-7.579 9.997v-19.997c4.367 1.235 7.579 5.245 7.579 10zM264.084 16.617c32.171 3.436 62.439 27.306 85.965 68.118 8.256 14.321 15.345 30.143 21.189 47.115-32.594 5.337-69.173 8.409-107.155 8.79V16.617zm-5.127 225.663c27.537 0 49.939 22.404 49.939 49.942v9.879c-.054-.043-.111-.081-.166-.124a7.256 7.256 0 0 0-.359-.267c-.095-.066-.193-.127-.291-.189a7.167 7.167 0 0 0-.367-.223c-.115-.065-.234-.122-.352-.181-.113-.056-.225-.113-.341-.165-.142-.063-.289-.115-.434-.17-.101-.038-.201-.077-.303-.111-.163-.054-.331-.097-.498-.14-.074-.021-.147-.046-.223-.064-15.357-3.492-20.222-23.515-20.263-23.689a8.081 8.081 0 0 0-6.265-6.134 8.077 8.077 0 0 0-8.17 3.182c-18.931 26.172-60.75 26.44-61.302 26.44h-.031c-.278 0-.554.014-.825.041-.085.01-.167.027-.252.039-.183.025-.369.047-.549.083-.115.024-.227.06-.342.088-.144.036-.291.068-.431.111-.131.041-.257.094-.385.141-.117.043-.239.081-.355.129-.148.063-.289.137-.43.206-.092.045-.185.084-.275.133-.146.078-.282.168-.422.254-.08.051-.164.096-.244.149-.13.088-.253.186-.379.282-.081.061-.165.117-.244.182-.074.061-.143.13-.216.194v-10.077c0-27.538 22.402-49.941 49.939-49.941h4.836zm-137.7 5.636c.663-35.494 5.674-69.635 14.601-100.55 34.156 5.741 72.48 9.047 112.058 9.445v69.602c-16.947 1.587-32.054 9.589-42.859 21.557a8.275 8.275 0 0 0-.896-.053h-82.904zm80.19 74.336v20.166c-4.533-1.121-7.906-5.209-7.906-10.083-.001-4.873 3.373-8.961 7.906-10.083zm46.469-305.635V140.64c-37.892-.384-74.5-3.468-107.146-8.815 5.843-16.962 12.929-32.774 21.181-47.09 23.526-40.812 53.794-64.682 85.965-68.118zm-58.103 8.845c-15.418 12.66-29.567 29.853-41.871 51.198-9.143 15.861-16.92 33.437-23.249 52.292-22.901-4.469-43.408-10.12-60.488-16.782 30.962-41.185 74.862-72.116 125.608-86.708zM54.69 125.786c18.216 7.444 40.381 13.729 65.212 18.661-9.073 31.967-14.158 67.072-14.816 103.469H16.32c1.495-44.906 15.39-86.723 38.37-122.13zm52.093 292.462c1.657.199 3.34.313 5.05.313h7.374c1.708 0 3.391-.114 5.047-.314v4.481l-9.006 9.346-8.465-8.243v-5.583zm12.424-15.855h-7.374c-14.285 0-25.906-11.621-25.906-25.905v-21.38c10.529-1.139 29.175-4.826 43.555-16.835 3.22 5.522 8.2 11.494 15.629 14.981v23.235c-.001 14.283-11.621 25.904-25.904 25.904zm20.801-80.455a8.081 8.081 0 0 0-6.265-6.134 8.077 8.077 0 0 0-8.169 3.182c-14.65 20.249-47.31 20.471-47.704 20.471h-.027c-.278 0-.554.014-.825.041-.085.01-.167.027-.252.039-.183.024-.369.047-.549.083-.115.024-.227.06-.342.088-.144.036-.29.068-.431.111-.087.027-.169.064-.255.094v-5.269c0-21.126 17.186-38.313 38.312-38.313h3.867c21.125 0 38.309 17.187 38.309 38.313v5.204h-.002c-.155-.051-.316-.089-.474-.13-.071-.018-.14-.043-.212-.06-11.268-2.563-14.954-17.607-14.981-17.72zM16.319 264.084h88.765c.101 5.568.316 11.129.623 16.645-26.361 3.791-46.689 26.519-46.689 53.914v14.305c-5.185 4.196-8.51 10.6-8.51 17.771 0 12.084 9.433 21.983 21.32 22.785 3.216 9.862 9.982 18.128 18.786 23.292v4.553l-8.831 3.458c-40.461-42.751-63.52-98.08-65.464-156.723zm53.438 97.009v11.252a6.688 6.688 0 0 1-3.081-5.624 6.695 6.695 0 0 1 3.081-5.628zm79.775 106.585v28.154H44.417v-20.891c0-22.539 17.62-29.071 18.305-29.314.125-.042.25-.087.373-.136l30.491-11.941 16.202 15.78a8.082 8.082 0 0 0 5.64 2.293l.128-.001a8.071 8.071 0 0 0 5.692-2.474l15.304-15.882 18.917 7.585c-3.587 7.341-5.937 16.232-5.937 26.827zm77.998-70.642l-42.908 16.803c-5.464 1.88-13.026 6.217-19.734 13.369l-24.467-9.812v-4.598c8.809-5.166 15.577-13.439 18.793-23.308 11.762-.929 21.053-10.776 21.053-22.771 0-7.134-3.289-13.51-8.424-17.708v-14.368c0-28.519-22.03-51.974-49.963-54.279a427.6 427.6 0 0 1-.624-16.281h73.06a65.693 65.693 0 0 0-6.304 28.137v18.864c-6.457 4.851-10.642 12.57-10.642 21.251 0 14.51 11.697 26.334 26.157 26.556 3.794 12.814 12.533 23.52 24.001 29.899v8.246zm-66.251-24.868V361.27c1.703 1.216 2.82 3.203 2.82 5.45s-1.117 4.233-2.82 5.448zm108.322 30.51v.52l-13.246 13.745-12.657-12.328v-10.172c2.715.453 5.499.7 8.342.7h9.222c2.841 0 5.624-.247 8.339-.698v8.233zm-8.339-23.702h-9.222c-18.982 0-34.425-15.442-34.425-34.424V316.01c12.902-1.188 38.414-5.673 57.049-22.402 3.933 7.443 10.526 16.084 21.02 20.566v30.377c-.001 18.983-15.442 34.425-34.422 34.425zm86.072 48.287c-6.707-7.17-14.278-11.522-19.754-13.412l-41.812-16.769v-8.292c11.471-6.38 20.208-17.089 24.001-29.907 14.307-.396 25.827-12.149 25.827-26.547 0-8.631-4.14-16.311-10.534-21.167v-18.948a65.682 65.682 0 0 0-6.304-28.137h71.983a427.46 427.46 0 0 1-.631 16.351c-27.506 2.729-49.06 25.998-49.06 54.208v14.307c-5.184 4.195-8.508 10.599-8.508 17.77 0 12.085 9.433 21.984 21.32 22.785 3.216 9.862 9.983 18.128 18.787 23.292v4.553l-25.315 9.913zm4.461-66.17v11.252a6.686 6.686 0 0 1-3.081-5.624 6.694 6.694 0 0 1 3.081-5.628zm115.962 134.739H362.641v-28.155c0-10.552-2.329-19.413-5.893-26.736l18.876-7.392 16.2 15.78a8.084 8.084 0 0 0 5.641 2.294l.127-.001a8.076 8.076 0 0 0 5.693-2.474l15.305-15.882 30.426 12.2c.142.058.221.088.368.138.75.266 18.374 6.799 18.374 29.338v20.89z"/></symbol><symbol id="wallet" viewBox="0 0 512 512"><path d="M490.6 222.6h-12.5v-84.4c0-19.8-15.6-35.4-34.4-35.4h-9.4V46.4c0-19.8-14.6-35.4-32.3-35.4h-2.1L43.3 102.7c-.1 0-.3.1-.4.1-17.6 1.4-31.9 16.5-31.9 35.4v327.4c0 19.8 15.6 35.4 34.4 35.4h398.3c19.8 0 35.4-15.6 35.4-35.4V379h11.5c6.3 0 10.4-4.2 10.4-10.4V233.1c0-6.3-5.2-10.5-10.4-10.5zM404 30.8c5.2 1 10.4 7.3 10.4 15.6v56.3H126.7L404 30.8zm54.3 434.8c0 8.3-6.3 15.6-14.6 15.6H45.4c-8.3 0-14.6-7.3-14.6-15.6V138.2c0-8.3 6.3-15.6 14.6-15.6h397.2c8.3 0 14.6 7.3 14.6 15.6v84.4H354c-43.8 0-78.2 34.4-78.2 78.2 0 43.8 35.4 78.2 78.2 78.2h104.3v86.6zm21.8-106.4H354c-31.3 0-57.3-26.1-57.3-57.3s26.1-57.3 57.3-57.3h126.1v114.6z"/><path d="M342.5 302.9c0 6.3 5.2 10.4 10.4 10.4h9.4c5.2 0 10.4-4.2 10.4-10.4 0-6.3-5.2-10.4-10.4-10.4H353c-6.3 0-10.5 4.2-10.5 10.4z"/></symbol><symbol id="warning" viewBox="0 0 511.999 511.999"><g fill="#c5c5c5"><path d="M506.43 421.537L291.573 49.394c-15.814-27.391-55.327-27.401-71.147 0L5.568 421.537c-15.814 27.391 3.934 61.616 35.574 61.616h429.714c31.629 0 51.394-34.215 35.574-61.616zm-35.574 23.973H41.142a3.416 3.416 0 0 1-2.975-5.152L253.024 68.215a3.416 3.416 0 0 1 5.949 0L473.83 440.357a3.416 3.416 0 0 1-2.974 5.153z"/><path d="M255.999 184.991c-10.394 0-18.821 8.427-18.821 18.821v107.89c0 10.394 8.427 18.821 18.821 18.821s18.821-8.427 18.821-18.821v-107.89c.001-10.394-8.426-18.821-18.821-18.821zM255.999 354.975c-10.394 0-18.821 8.427-18.821 18.821v11.239c0 10.394 8.427 18.821 18.821 18.821s18.821-8.427 18.821-18.821v-11.239c.001-10.396-8.426-18.821-18.821-18.821z"/></g></symbol></svg>